<svg xmlns="http://www.w3.org/2000/svg" xmlns:xlink="http://www.w3.org/1999/xlink" width="500" zoomAndPan="magnify" viewBox="0 0 375 374.999991" height="500" preserveAspectRatio="xMidYMid meet" version="1.0"><defs><g/><clipPath id="71da0b1c30"><path d="M 20.128906 149.085938 L 113.128906 149.085938 L 113.128906 199.335938 L 20.128906 199.335938 Z M 20.128906 149.085938 " clip-rule="nonzero"/></clipPath><clipPath id="7f5742e497"><path d="M 20.128906 155 L 113.128906 155 L 113.128906 186 L 20.128906 186 Z M 20.128906 155 " clip-rule="nonzero"/></clipPath><clipPath id="6cab2d2ba7"><rect x="0" width="202" y="0" height="35"/></clipPath><clipPath id="2787ff14d8"><rect x="0" width="212" y="0" height="23"/></clipPath></defs><g clip-path="url(#71da0b1c30)"><path fill="#171710" d="M 87.277344 179.175781 C 87.492188 179.648438 87.609375 180.167969 87.609375 180.695312 C 87.609375 182.710938 85.96875 184.347656 83.957031 184.347656 C 83.953125 184.347656 83.949219 184.347656 83.949219 184.347656 C 80.441406 190.25 73.984375 194.21875 66.648438 194.179688 C 59.367188 194.136719 53.007812 190.199219 49.550781 184.347656 C 47.542969 184.339844 45.914062 182.703125 45.914062 180.695312 C 45.914062 180.167969 46.027344 179.648438 46.246094 179.175781 L 43.730469 178.925781 C 43.773438 179.136719 43.816406 179.34375 43.863281 179.550781 C 43.851562 179.585938 43.84375 179.617188 43.832031 179.652344 C 44.128906 180.902344 44.523438 182.113281 45.007812 183.277344 C 45.039062 183.296875 45.0625 183.316406 45.09375 183.339844 C 45.539062 184.386719 46.050781 185.398438 46.636719 186.359375 C 46.65625 186.394531 46.65625 186.4375 46.640625 186.472656 C 46.675781 186.53125 46.710938 186.585938 46.746094 186.644531 L 45.90625 188.101562 C 45.882812 188.140625 45.886719 188.191406 45.910156 188.230469 C 46.25 188.734375 46.609375 189.226562 46.980469 189.703125 C 47.011719 189.738281 47.058594 189.753906 47.101562 189.746094 L 48.75 189.394531 C 48.792969 189.449219 48.839844 189.5 48.882812 189.554688 C 48.917969 189.566406 48.949219 189.574219 48.984375 189.585938 C 49.722656 190.441406 50.523438 191.242188 51.378906 191.980469 C 51.390625 192.019531 51.402344 192.046875 51.414062 192.082031 C 51.464844 192.128906 51.519531 192.171875 51.570312 192.214844 L 51.222656 193.863281 C 51.210938 193.910156 51.230469 193.957031 51.265625 193.984375 C 51.742188 194.359375 52.234375 194.714844 52.734375 195.054688 C 52.773438 195.082031 52.824219 195.082031 52.863281 195.058594 L 54.324219 194.21875 C 54.378906 194.253906 54.4375 194.289062 54.492188 194.324219 C 54.53125 194.308594 54.570312 194.308594 54.605469 194.332031 C 55.570312 194.914062 56.578125 195.429688 57.625 195.871094 C 57.664062 195.886719 57.6875 195.921875 57.695312 195.960938 C 57.757812 195.984375 57.820312 196.011719 57.882812 196.035156 L 58.058594 197.710938 C 58.0625 197.757812 58.09375 197.796875 58.136719 197.8125 C 58.703125 198.019531 59.277344 198.207031 59.863281 198.371094 C 59.90625 198.386719 59.953125 198.371094 59.984375 198.335938 L 61.113281 197.085938 C 61.179688 197.101562 61.246094 197.117188 61.3125 197.132812 C 61.347656 197.121094 61.378906 197.113281 61.417969 197.101562 C 62.503906 197.355469 63.621094 197.53125 64.761719 197.628906 C 64.792969 197.648438 64.820312 197.667969 64.851562 197.691406 C 64.917969 197.695312 64.988281 197.699219 65.058594 197.707031 L 65.746094 199.242188 C 65.78125 199.269531 65.8125 199.289062 65.847656 199.3125 C 66.152344 199.324219 66.457031 199.332031 66.761719 199.332031 C 67.066406 199.332031 67.371094 199.324219 67.671875 199.3125 C 67.710938 199.289062 67.738281 199.269531 67.777344 199.242188 L 68.464844 197.707031 C 68.53125 197.699219 68.601562 197.695312 68.671875 197.691406 C 68.703125 197.667969 68.726562 197.648438 68.757812 197.628906 C 69.898438 197.53125 71.015625 197.355469 72.105469 197.101562 C 72.140625 197.113281 72.171875 197.121094 72.207031 197.132812 C 72.273438 197.117188 72.339844 197.101562 72.410156 197.085938 L 73.535156 198.335938 C 73.566406 198.371094 73.613281 198.386719 73.65625 198.371094 C 74.242188 198.207031 74.816406 198.019531 75.386719 197.8125 C 75.429688 197.796875 75.457031 197.757812 75.460938 197.710938 L 75.640625 196.035156 C 75.699219 196.011719 75.761719 195.984375 75.824219 195.960938 C 75.832031 195.921875 75.859375 195.886719 75.894531 195.871094 C 76.941406 195.429688 77.953125 194.914062 78.914062 194.332031 C 78.949219 194.308594 78.992188 194.308594 79.027344 194.324219 C 79.085938 194.289062 79.140625 194.253906 79.199219 194.21875 L 80.65625 195.058594 C 80.695312 195.082031 80.746094 195.082031 80.785156 195.054688 C 81.289062 194.714844 81.78125 194.359375 82.257812 193.984375 C 82.292969 193.957031 82.308594 193.910156 82.300781 193.863281 L 81.949219 192.214844 C 82.003906 192.171875 82.054688 192.128906 82.109375 192.082031 C 82.121094 192.046875 82.128906 192.019531 82.140625 191.980469 C 82.996094 191.242188 83.796875 190.441406 84.535156 189.585938 C 84.574219 189.574219 84.601562 189.566406 84.636719 189.554688 C 84.683594 189.5 84.726562 189.449219 84.769531 189.394531 L 86.417969 189.746094 C 86.464844 189.753906 86.511719 189.738281 86.539062 189.703125 C 86.914062 189.226562 87.269531 188.734375 87.609375 188.230469 C 87.636719 188.191406 87.636719 188.140625 87.613281 188.101562 L 86.773438 186.644531 C 86.808594 186.585938 86.84375 186.53125 86.878906 186.472656 C 86.863281 186.4375 86.863281 186.394531 86.886719 186.359375 C 87.46875 185.398438 87.984375 184.386719 88.425781 183.339844 C 88.441406 183.304688 88.476562 183.277344 88.515625 183.269531 C 89 182.109375 89.394531 180.898438 89.6875 179.652344 C 89.675781 179.617188 89.667969 179.585938 89.65625 179.550781 C 89.703125 179.34375 89.75 179.136719 89.792969 178.925781 Z M 113.355469 152.949219 L 76.8125 152.949219 C 76.511719 152.808594 76.203125 152.671875 75.894531 152.539062 C 75.859375 152.523438 75.832031 152.492188 75.824219 152.453125 C 75.761719 152.425781 75.699219 152.402344 75.640625 152.375 L 75.460938 150.699219 C 75.457031 150.65625 75.429688 150.617188 75.386719 150.601562 C 74.816406 150.394531 74.242188 150.207031 73.65625 150.039062 C 73.613281 150.027344 73.566406 150.039062 73.535156 150.074219 L 72.410156 151.328125 C 72.339844 151.3125 72.273438 151.292969 72.207031 151.277344 C 72.171875 151.289062 72.140625 151.296875 72.105469 151.308594 C 71.015625 151.054688 69.898438 150.878906 68.757812 150.78125 C 68.726562 150.761719 68.703125 150.742188 68.671875 150.722656 C 68.601562 150.714844 68.53125 150.710938 68.464844 150.707031 L 67.777344 149.167969 C 67.738281 149.144531 67.710938 149.121094 67.671875 149.097656 C 67.371094 149.085938 67.066406 149.082031 66.761719 149.082031 C 66.457031 149.082031 66.152344 149.085938 65.847656 149.097656 C 65.8125 149.121094 65.78125 149.144531 65.746094 149.167969 L 65.058594 150.707031 C 64.988281 150.710938 64.917969 150.714844 64.851562 150.722656 C 64.820312 150.742188 64.792969 150.761719 64.761719 150.78125 C 63.621094 150.878906 62.503906 151.054688 61.417969 151.308594 C 61.378906 151.296875 61.347656 151.289062 61.3125 151.277344 C 61.246094 151.292969 61.179688 151.3125 61.113281 151.328125 L 59.984375 150.074219 C 59.953125 150.039062 59.90625 150.027344 59.863281 150.039062 C 59.277344 150.207031 58.703125 150.394531 58.136719 150.601562 C 58.09375 150.617188 58.0625 150.65625 58.058594 150.699219 L 57.882812 152.375 C 57.820312 152.402344 57.757812 152.425781 57.695312 152.453125 C 57.6875 152.492188 57.664062 152.523438 57.625 152.539062 C 57.316406 152.671875 57.011719 152.808594 56.707031 152.949219 L 20.167969 152.949219 C 21.382812 154.59375 23.304688 155.5625 25.347656 155.5625 L 52.355469 155.5625 C 52.035156 155.808594 51.71875 156.066406 51.414062 156.328125 C 51.402344 156.363281 51.390625 156.394531 51.378906 156.429688 C 50.792969 156.9375 50.230469 157.476562 49.695312 158.039062 L 23.933594 158.039062 C 25.085938 159.597656 26.910156 160.519531 28.851562 160.519531 L 47.582031 160.519531 C 47.253906 160.980469 46.9375 161.453125 46.640625 161.9375 C 46.65625 161.976562 46.65625 162.015625 46.636719 162.050781 C 46.449219 162.359375 46.269531 162.675781 46.09375 162.996094 L 29.152344 162.996094 C 30.585938 164.574219 32.617188 165.472656 34.75 165.472656 L 44.871094 165.472656 C 44.550781 166.277344 44.273438 167.105469 44.039062 167.949219 L 33.652344 167.949219 C 35.085938 169.53125 37.117188 170.429688 39.25 170.429688 L 43.554688 170.429688 C 43.460938 171.015625 43.386719 171.609375 43.335938 172.207031 C 43.316406 172.238281 43.296875 172.265625 43.277344 172.296875 C 43.261719 172.492188 43.246094 172.6875 43.238281 172.886719 L 46.832031 172.886719 C 47.519531 162.472656 56.28125 154.175781 66.875 154.234375 C 77.410156 154.292969 86.011719 162.507812 86.6875 172.886719 L 90.285156 172.886719 C 90.273438 172.6875 90.261719 172.492188 90.246094 172.296875 C 90.222656 172.265625 90.203125 172.238281 90.183594 172.207031 C 90.132812 171.609375 90.058594 171.015625 89.964844 170.429688 L 94.273438 170.429688 C 96.402344 170.429688 98.4375 169.53125 99.867188 167.949219 L 89.480469 167.949219 C 89.25 167.105469 88.972656 166.277344 88.648438 165.472656 L 98.769531 165.472656 C 100.902344 165.472656 102.933594 164.574219 104.367188 162.996094 L 87.425781 162.996094 C 87.253906 162.675781 87.074219 162.359375 86.886719 162.050781 C 86.863281 162.015625 86.863281 161.976562 86.878906 161.9375 C 86.582031 161.453125 86.269531 160.980469 85.9375 160.519531 L 104.671875 160.519531 C 106.609375 160.519531 108.433594 159.597656 109.585938 158.039062 L 83.824219 158.039062 C 83.289062 157.476562 82.730469 156.9375 82.140625 156.429688 C 82.128906 156.394531 82.121094 156.363281 82.109375 156.328125 C 81.800781 156.066406 81.488281 155.808594 81.167969 155.5625 L 108.171875 155.5625 C 110.214844 155.5625 112.136719 154.59375 113.355469 152.949219 " fill-opacity="1" fill-rule="nonzero"/></g><g clip-path="url(#7f5742e497)"><path fill="#171710" d="M 94.847656 179.589844 L 94.847656 178.101562 C 95.617188 178.21875 96.21875 178.824219 96.335938 179.589844 Z M 94.847656 181.617188 L 94.847656 180.128906 L 96.335938 180.128906 C 96.21875 180.894531 95.617188 181.5 94.847656 181.617188 Z M 94.308594 179.589844 L 92.820312 179.589844 C 92.9375 178.824219 93.542969 178.21875 94.308594 178.101562 Z M 94.308594 181.617188 C 93.542969 181.5 92.9375 180.894531 92.820312 180.128906 L 94.308594 180.128906 Z M 84.226562 180.425781 L 84.226562 178.9375 C 84.992188 179.054688 85.597656 179.660156 85.714844 180.425781 Z M 84.226562 182.453125 L 84.226562 180.964844 L 85.714844 180.964844 C 85.597656 181.730469 84.992188 182.335938 84.226562 182.453125 Z M 83.6875 180.425781 L 82.199219 180.425781 C 82.3125 179.679688 82.886719 179.09375 83.625 178.953125 L 83.6875 178.945312 Z M 83.6875 182.453125 C 82.921875 182.335938 82.316406 181.730469 82.199219 180.964844 L 83.6875 180.964844 Z M 71.476562 172.398438 L 62.042969 172.398438 C 61.09375 172.398438 60.507812 171.613281 61.011719 171.003906 L 61.464844 170.453125 C 62.5 169.199219 64.324219 168.433594 66.289062 168.433594 L 67.230469 168.433594 C 69.195312 168.433594 71.019531 169.199219 72.054688 170.453125 L 72.511719 171.003906 C 73.011719 171.613281 72.429688 172.398438 71.476562 172.398438 Z M 49.832031 180.425781 L 49.832031 178.945312 L 49.898438 178.953125 C 50.632812 179.09375 51.207031 179.679688 51.320312 180.425781 Z M 49.832031 182.453125 L 49.832031 180.964844 L 51.320312 180.964844 C 51.203125 181.730469 50.601562 182.335938 49.832031 182.453125 Z M 49.292969 180.425781 L 47.808594 180.425781 C 47.925781 179.660156 48.527344 179.054688 49.292969 178.9375 Z M 49.292969 182.453125 C 48.527344 182.335938 47.925781 181.730469 47.808594 180.964844 L 49.292969 180.964844 Z M 39.210938 179.589844 L 39.210938 178.101562 C 39.976562 178.21875 40.582031 178.824219 40.699219 179.589844 Z M 39.210938 181.617188 L 39.210938 180.128906 L 40.699219 180.128906 C 40.582031 180.894531 39.976562 181.5 39.210938 181.617188 Z M 38.671875 179.589844 L 37.183594 179.589844 C 37.300781 178.824219 37.90625 178.21875 38.671875 178.101562 Z M 38.671875 181.617188 C 37.90625 181.5 37.300781 180.894531 37.183594 180.128906 L 38.671875 180.128906 Z M 108.824219 173.464844 L 76.398438 173.464844 C 75.910156 170.226562 73.980469 167.492188 71.332031 166.007812 L 73.515625 164.871094 C 74.167969 164.53125 74.578125 163.855469 74.578125 163.121094 L 69.277344 165.15625 C 68.972656 165.070312 68.664062 165.003906 68.347656 164.949219 L 67.222656 155.929688 C 67.183594 155.597656 66.972656 155.433594 66.761719 155.433594 C 66.550781 155.433594 66.339844 155.597656 66.296875 155.929688 L 65.171875 164.949219 C 64.859375 165.003906 64.546875 165.070312 64.242188 165.15625 L 58.945312 163.121094 C 58.945312 163.855469 59.351562 164.53125 60.003906 164.871094 L 62.1875 166.007812 C 59.539062 167.492188 57.613281 170.226562 57.121094 173.464844 L 24.695312 173.464844 L 20.167969 169.597656 L 23.292969 175.367188 C 23.640625 176.007812 24.28125 176.433594 25.003906 176.503906 L 36.792969 177.664062 C 36.222656 178.222656 35.867188 179 35.867188 179.859375 C 35.867188 181.671875 37.433594 183.117188 39.289062 182.914062 C 40.695312 182.761719 41.84375 181.613281 41.996094 180.207031 C 42.082031 179.429688 41.878906 178.707031 41.480469 178.125 L 47.238281 178.691406 C 46.773438 179.230469 46.488281 179.929688 46.488281 180.695312 C 46.488281 182.503906 48.054688 183.949219 49.90625 183.75 C 51.269531 183.601562 52.394531 182.527344 52.601562 181.171875 C 52.710938 180.445312 52.5625 179.757812 52.238281 179.183594 L 58.050781 179.753906 C 59.660156 183.105469 62.957031 185.398438 66.761719 185.398438 C 70.566406 185.398438 73.859375 183.105469 75.46875 179.753906 L 81.28125 179.183594 C 80.957031 179.757812 80.808594 180.445312 80.917969 181.171875 C 81.125 182.527344 82.25 183.601562 83.613281 183.75 C 85.464844 183.949219 87.03125 182.503906 87.03125 180.695312 C 87.03125 179.929688 86.75 179.230469 86.285156 178.691406 L 92.042969 178.125 C 91.644531 178.707031 91.4375 179.429688 91.523438 180.207031 C 91.679688 181.613281 92.824219 182.761719 94.234375 182.914062 C 96.085938 183.117188 97.652344 181.671875 97.652344 179.859375 C 97.652344 179 97.296875 178.222656 96.726562 177.664062 L 108.515625 176.503906 C 109.238281 176.433594 109.882812 176.007812 110.230469 175.367188 L 113.355469 169.597656 L 108.824219 173.464844 " fill-opacity="1" fill-rule="nonzero"/></g><g transform="matrix(1, 0, 0, 1, 127, 147)"><g clip-path="url(#6cab2d2ba7)"><g fill="#000000" fill-opacity="1"><g transform="translate(1.037157, 24.765924)"><g><path d="M 14.234375 -22.078125 L 14.234375 -17.671875 L 6.640625 -17.671875 L 6.640625 -13.28125 L 13.921875 -13.28125 L 13.921875 -8.859375 L 6.640625 -8.859375 L 6.640625 -4.421875 L 14.234375 -4.421875 L 14.234375 0 L 1.609375 0 L 1.609375 -22.078125 Z M 14.234375 -22.078125 "/></g></g></g><g fill="#000000" fill-opacity="1"><g transform="translate(17.227576, 24.765924)"><g><path d="M 13.359375 -4.546875 C 14.117188 -4.546875 14.859375 -4.660156 15.578125 -4.890625 C 16.304688 -5.128906 16.84375 -5.351562 17.1875 -5.5625 L 17.6875 -5.921875 L 19.828125 -1.625 C 19.753906 -1.570312 19.65625 -1.5 19.53125 -1.40625 C 19.40625 -1.320312 19.113281 -1.160156 18.65625 -0.921875 C 18.207031 -0.679688 17.722656 -0.472656 17.203125 -0.296875 C 16.691406 -0.117188 16.015625 0.0390625 15.171875 0.1875 C 14.335938 0.332031 13.472656 0.40625 12.578125 0.40625 C 10.523438 0.40625 8.578125 -0.0976562 6.734375 -1.109375 C 4.898438 -2.117188 3.421875 -3.503906 2.296875 -5.265625 C 1.171875 -7.035156 0.609375 -8.945312 0.609375 -11 C 0.609375 -12.550781 0.9375 -14.039062 1.59375 -15.46875 C 2.257812 -16.894531 3.140625 -18.113281 4.234375 -19.125 C 5.335938 -20.144531 6.617188 -20.957031 8.078125 -21.5625 C 9.546875 -22.175781 11.046875 -22.484375 12.578125 -22.484375 C 14.003906 -22.484375 15.316406 -22.3125 16.515625 -21.96875 C 17.722656 -21.632812 18.578125 -21.296875 19.078125 -20.953125 L 19.828125 -20.453125 L 17.6875 -16.171875 C 17.5625 -16.273438 17.375 -16.398438 17.125 -16.546875 C 16.875 -16.703125 16.375 -16.90625 15.625 -17.15625 C 14.875 -17.40625 14.117188 -17.53125 13.359375 -17.53125 C 12.140625 -17.53125 11.046875 -17.332031 10.078125 -16.9375 C 9.117188 -16.550781 8.359375 -16.035156 7.796875 -15.390625 C 7.234375 -14.742188 6.804688 -14.050781 6.515625 -13.3125 C 6.222656 -12.570312 6.078125 -11.816406 6.078125 -11.046875 C 6.078125 -9.367188 6.703125 -7.863281 7.953125 -6.53125 C 9.210938 -5.207031 11.015625 -4.546875 13.359375 -4.546875 Z M 13.359375 -4.546875 "/></g></g></g><g fill="#000000" fill-opacity="1"><g transform="translate(38.047594, 24.765924)"><g><path d="M 0.609375 -11.046875 C 0.609375 -14.242188 1.695312 -16.945312 3.875 -19.15625 C 6.050781 -21.375 8.675781 -22.484375 11.75 -22.484375 C 14.832031 -22.484375 17.453125 -21.378906 19.609375 -19.171875 C 21.773438 -16.972656 22.859375 -14.265625 22.859375 -11.046875 C 22.859375 -7.816406 21.796875 -5.097656 19.671875 -2.890625 C 17.546875 -0.691406 14.90625 0.40625 11.75 0.40625 C 8.519531 0.40625 5.851562 -0.6875 3.75 -2.875 C 1.65625 -5.0625 0.609375 -7.785156 0.609375 -11.046875 Z M 6.046875 -11.046875 C 6.046875 -9.890625 6.222656 -8.832031 6.578125 -7.875 C 6.941406 -6.925781 7.566406 -6.117188 8.453125 -5.453125 C 9.347656 -4.796875 10.445312 -4.46875 11.75 -4.46875 C 13.625 -4.46875 15.035156 -5.109375 15.984375 -6.390625 C 16.941406 -7.679688 17.421875 -9.234375 17.421875 -11.046875 C 17.421875 -12.847656 16.929688 -14.394531 15.953125 -15.6875 C 14.984375 -16.988281 13.582031 -17.640625 11.75 -17.640625 C 9.925781 -17.640625 8.519531 -16.988281 7.53125 -15.6875 C 6.539062 -14.394531 6.046875 -12.847656 6.046875 -11.046875 Z M 6.046875 -11.046875 "/></g></g></g><g fill="#000000" fill-opacity="1"><g transform="translate(62.185958, 24.765924)"><g><path d="M 18.546875 0 L 15.015625 -12.390625 L 11.484375 0 L 5.890625 0 L -0.40625 -22.078125 L 5.1875 -22.078125 L 8.96875 -6.9375 L 9.09375 -6.9375 L 13.109375 -22.078125 L 16.921875 -22.078125 L 20.9375 -6.9375 L 21.0625 -6.9375 L 24.84375 -22.078125 L 30.40625 -22.078125 L 24.109375 0 Z M 18.546875 0 "/></g></g></g><g fill="#000000" fill-opacity="1"><g transform="translate(92.853947, 24.765924)"><g><path d="M 6.640625 -8.859375 L 6.640625 0 L 1.609375 0 L 1.609375 -22.078125 L 6.640625 -22.078125 L 6.640625 -13.28125 L 13.75 -13.28125 L 13.75 -22.078125 L 18.796875 -22.078125 L 18.796875 0 L 13.75 0 L 13.75 -8.859375 Z M 6.640625 -8.859375 "/></g></g></g><g fill="#000000" fill-opacity="1"><g transform="translate(113.914826, 24.765924)"><g><path d="M 6.640625 -22.078125 L 6.640625 0 L 1.609375 0 L 1.609375 -22.078125 Z M 6.640625 -22.078125 "/></g></g></g><g fill="#000000" fill-opacity="1"><g transform="translate(122.826309, 24.765924)"><g><path d="M 9.75 -22.484375 C 10.9375 -22.484375 12.101562 -22.304688 13.25 -21.953125 C 14.394531 -21.609375 15.242188 -21.269531 15.796875 -20.9375 L 16.59375 -20.390625 L 14.5625 -16.375 C 14.394531 -16.488281 14.171875 -16.628906 13.890625 -16.796875 C 13.609375 -16.960938 13.070312 -17.1875 12.28125 -17.46875 C 11.5 -17.757812 10.769531 -17.90625 10.09375 -17.90625 C 9.25 -17.90625 8.597656 -17.722656 8.140625 -17.359375 C 7.691406 -17.003906 7.46875 -16.523438 7.46875 -15.921875 C 7.46875 -15.617188 7.570312 -15.335938 7.78125 -15.078125 C 8 -14.816406 8.363281 -14.539062 8.875 -14.25 C 9.394531 -13.957031 9.851562 -13.722656 10.25 -13.546875 C 10.644531 -13.367188 11.253906 -13.097656 12.078125 -12.734375 C 13.503906 -12.128906 14.71875 -11.304688 15.71875 -10.265625 C 16.726562 -9.222656 17.234375 -8.039062 17.234375 -6.71875 C 17.234375 -5.445312 17.003906 -4.335938 16.546875 -3.390625 C 16.097656 -2.453125 15.472656 -1.710938 14.671875 -1.171875 C 13.878906 -0.640625 13 -0.242188 12.03125 0.015625 C 11.070312 0.273438 10.03125 0.40625 8.90625 0.40625 C 7.945312 0.40625 7.003906 0.304688 6.078125 0.109375 C 5.148438 -0.0859375 4.375 -0.332031 3.75 -0.625 C 3.125 -0.925781 2.5625 -1.21875 2.0625 -1.5 C 1.5625 -1.78125 1.195312 -2.019531 0.96875 -2.21875 L 0.609375 -2.515625 L 3.125 -6.75 C 3.34375 -6.570312 3.640625 -6.34375 4.015625 -6.0625 C 4.390625 -5.78125 5.050781 -5.40625 6 -4.9375 C 6.957031 -4.476562 7.800781 -4.25 8.53125 -4.25 C 10.65625 -4.25 11.71875 -4.972656 11.71875 -6.421875 C 11.71875 -6.722656 11.640625 -7.003906 11.484375 -7.265625 C 11.335938 -7.523438 11.070312 -7.785156 10.6875 -8.046875 C 10.3125 -8.304688 9.972656 -8.507812 9.671875 -8.65625 C 9.378906 -8.8125 8.898438 -9.046875 8.234375 -9.359375 C 7.566406 -9.671875 7.070312 -9.90625 6.75 -10.0625 C 5.40625 -10.71875 4.367188 -11.539062 3.640625 -12.53125 C 2.910156 -13.53125 2.546875 -14.597656 2.546875 -15.734375 C 2.546875 -17.710938 3.273438 -19.332031 4.734375 -20.59375 C 6.203125 -21.851562 7.875 -22.484375 9.75 -22.484375 Z M 9.75 -22.484375 "/></g></g></g><g fill="#000000" fill-opacity="1"><g transform="translate(141.478713, 24.765924)"><g><path d="M 21.703125 0 L 14.78125 0 L 6.640625 -9.375 L 6.640625 0 L 1.609375 0 L 1.609375 -22.078125 L 6.640625 -22.078125 L 6.640625 -13.0625 L 14.21875 -22.078125 L 20.3125 -22.078125 L 11.421875 -11.609375 Z M 21.703125 0 "/></g></g></g><g fill="#000000" fill-opacity="1"><g transform="translate(163.208601, 24.765924)"><g><path d="M 14.234375 -22.078125 L 14.234375 -17.671875 L 6.640625 -17.671875 L 6.640625 -13.28125 L 13.921875 -13.28125 L 13.921875 -8.859375 L 6.640625 -8.859375 L 6.640625 -4.421875 L 14.234375 -4.421875 L 14.234375 0 L 1.609375 0 L 1.609375 -22.078125 Z M 14.234375 -22.078125 "/></g></g></g><g fill="#000000" fill-opacity="1"><g transform="translate(179.39902, 24.765924)"><g><path d="M -0.796875 -22.078125 L 5.25 -22.078125 L 9.84375 -15.015625 L 14.453125 -22.078125 L 20.5 -22.078125 L 12.359375 -9.90625 L 12.359375 0 L 7.328125 0 L 7.328125 -9.90625 Z M -0.796875 -22.078125 "/></g></g></g></g></g><g transform="matrix(1, 0, 0, 1, 122, 177)"><g clip-path="url(#2787ff14d8)"><g fill="#000000" fill-opacity="1"><g transform="translate(1.398078, 17.821381)"><g><path d="M 3.65625 -14.59375 L 12.40625 -14.59375 C 12.945312 -14.59375 13.4375 -14.460938 13.875 -14.203125 C 14.320312 -13.941406 14.675781 -13.585938 14.9375 -13.140625 C 15.195312 -12.703125 15.328125 -12.21875 15.328125 -11.6875 L 15.328125 0 L 12.40625 0 L 12.40625 -5.84375 L 3.65625 -5.84375 L 3.65625 0 L 0.734375 0 L 0.734375 -11.6875 C 0.734375 -12.21875 0.863281 -12.703125 1.125 -13.140625 C 1.382812 -13.585938 1.734375 -13.941406 2.171875 -14.203125 C 2.617188 -14.460938 3.113281 -14.59375 3.65625 -14.59375 Z M 3.65625 -11.6875 L 3.65625 -8.765625 L 12.40625 -8.765625 L 12.40625 -11.6875 Z M 3.65625 -11.6875 "/></g></g></g><g fill="#000000" fill-opacity="1"><g transform="translate(21.101562, 17.821381)"><g><path d="M 15.328125 -14.59375 L 15.328125 -11.6875 L 9.484375 -11.6875 L 9.484375 0 L 6.5625 0 L 6.5625 -11.6875 L 0.734375 -11.6875 L 0.734375 -14.59375 Z M 15.328125 -14.59375 "/></g></g></g><g fill="#000000" fill-opacity="1"><g transform="translate(40.805046, 17.821381)"><g><path d="M 15.328125 0 L 3.65625 0 C 3.113281 0 2.617188 -0.128906 2.171875 -0.390625 C 1.734375 -0.648438 1.382812 -1 1.125 -1.4375 C 0.863281 -1.882812 0.734375 -2.378906 0.734375 -2.921875 L 0.734375 -11.6875 C 0.734375 -12.21875 0.863281 -12.703125 1.125 -13.140625 C 1.382812 -13.585938 1.734375 -13.941406 2.171875 -14.203125 C 2.617188 -14.460938 3.113281 -14.59375 3.65625 -14.59375 L 15.328125 -14.59375 L 15.328125 -11.6875 L 3.65625 -11.6875 L 3.65625 -2.921875 L 15.328125 -2.921875 Z M 15.328125 0 "/></g></g></g><g fill="#000000" fill-opacity="1"><g transform="translate(60.50853, 17.821381)"><g/></g></g><g fill="#000000" fill-opacity="1"><g transform="translate(72.185475, 17.821381)"><g><path d="M 15.328125 -14.59375 L 15.328125 -11.6875 L 9.484375 -11.6875 L 9.484375 0 L 6.5625 0 L 6.5625 -11.6875 L 0.734375 -11.6875 L 0.734375 -14.59375 Z M 15.328125 -14.59375 "/></g></g></g><g fill="#000000" fill-opacity="1"><g transform="translate(91.888959, 17.821381)"><g><path d="M 15.328125 -11.6875 L 15.328125 -8.765625 C 15.328125 -8.222656 15.195312 -7.726562 14.9375 -7.28125 C 14.675781 -6.84375 14.320312 -6.492188 13.875 -6.234375 C 13.4375 -5.972656 12.945312 -5.84375 12.40625 -5.84375 L 9.484375 -5.84375 L 12.40625 -2.921875 L 15.328125 -2.921875 L 15.328125 0 L 11.828125 0 C 11.410156 0 11.054688 -0.144531 10.765625 -0.4375 L 5.359375 -5.84375 L 3.65625 -5.84375 L 3.65625 0 L 0.734375 0 L 0.734375 -14.59375 L 12.40625 -14.59375 C 12.945312 -14.59375 13.4375 -14.460938 13.875 -14.203125 C 14.320312 -13.941406 14.675781 -13.585938 14.9375 -13.140625 C 15.195312 -12.703125 15.328125 -12.21875 15.328125 -11.6875 Z M 12.40625 -11.6875 L 3.65625 -11.6875 L 3.65625 -8.765625 L 12.40625 -8.765625 Z M 12.40625 -11.6875 "/></g></g></g><g fill="#000000" fill-opacity="1"><g transform="translate(111.592443, 17.821381)"><g><path d="M 3.65625 -14.59375 L 12.40625 -14.59375 C 12.945312 -14.59375 13.4375 -14.460938 13.875 -14.203125 C 14.320312 -13.941406 14.675781 -13.585938 14.9375 -13.140625 C 15.195312 -12.703125 15.328125 -12.21875 15.328125 -11.6875 L 15.328125 0 L 12.40625 0 L 12.40625 -5.84375 L 3.65625 -5.84375 L 3.65625 0 L 0.734375 0 L 0.734375 -11.6875 C 0.734375 -12.21875 0.863281 -12.703125 1.125 -13.140625 C 1.382812 -13.585938 1.734375 -13.941406 2.171875 -14.203125 C 2.617188 -14.460938 3.113281 -14.59375 3.65625 -14.59375 Z M 3.65625 -11.6875 L 3.65625 -8.765625 L 12.40625 -8.765625 L 12.40625 -11.6875 Z M 3.65625 -11.6875 "/></g></g></g><g fill="#000000" fill-opacity="1"><g transform="translate(131.295927, 17.821381)"><g><path d="M 15.328125 0 L 0.734375 0 L 0.734375 -2.921875 L 6.5625 -2.921875 L 6.5625 -11.6875 L 0.734375 -11.6875 L 0.734375 -14.59375 L 15.328125 -14.59375 L 15.328125 -11.6875 L 9.484375 -11.6875 L 9.484375 -2.921875 L 15.328125 -2.921875 Z M 15.328125 0 "/></g></g></g><g fill="#000000" fill-opacity="1"><g transform="translate(150.999411, 17.821381)"><g><path d="M 3.65625 0 L 0.734375 0 L 0.734375 -13.140625 C 0.734375 -13.546875 0.875 -13.890625 1.15625 -14.171875 C 1.445312 -14.453125 1.789062 -14.59375 2.1875 -14.59375 C 2.59375 -14.59375 2.941406 -14.445312 3.234375 -14.15625 L 12.40625 -4.984375 L 12.40625 -14.59375 L 15.328125 -14.59375 L 15.328125 -1.453125 C 15.328125 -1.054688 15.179688 -0.710938 14.890625 -0.421875 C 14.609375 -0.140625 14.269531 0 13.875 0 C 13.46875 0 13.117188 -0.144531 12.828125 -0.4375 L 3.65625 -9.625 Z M 3.65625 0 "/></g></g></g><g fill="#000000" fill-opacity="1"><g transform="translate(170.702895, 17.821381)"><g><path d="M 15.328125 -14.59375 L 15.328125 -11.6875 L 3.65625 -11.6875 L 3.65625 -8.765625 L 15.328125 -8.765625 L 15.328125 -5.84375 L 3.65625 -5.84375 L 3.65625 -2.921875 L 15.328125 -2.921875 L 15.328125 0 L 3.65625 0 C 3.113281 0 2.617188 -0.128906 2.171875 -0.390625 C 1.734375 -0.648438 1.382812 -1 1.125 -1.4375 C 0.863281 -1.882812 0.734375 -2.378906 0.734375 -2.921875 L 0.734375 -11.6875 C 0.734375 -12.21875 0.863281 -12.703125 1.125 -13.140625 C 1.382812 -13.585938 1.734375 -13.941406 2.171875 -14.203125 C 2.617188 -14.460938 3.113281 -14.59375 3.65625 -14.59375 Z M 15.328125 -14.59375 "/></g></g></g><g fill="#000000" fill-opacity="1"><g transform="translate(190.406379, 17.821381)"><g><path d="M 15.328125 -11.6875 L 15.328125 -8.765625 C 15.328125 -8.222656 15.195312 -7.726562 14.9375 -7.28125 C 14.675781 -6.84375 14.320312 -6.492188 13.875 -6.234375 C 13.4375 -5.972656 12.945312 -5.84375 12.40625 -5.84375 L 9.484375 -5.84375 L 12.40625 -2.921875 L 15.328125 -2.921875 L 15.328125 0 L 11.828125 0 C 11.410156 0 11.054688 -0.144531 10.765625 -0.4375 L 5.359375 -5.84375 L 3.65625 -5.84375 L 3.65625 0 L 0.734375 0 L 0.734375 -14.59375 L 12.40625 -14.59375 C 12.945312 -14.59375 13.4375 -14.460938 13.875 -14.203125 C 14.320312 -13.941406 14.675781 -13.585938 14.9375 -13.140625 C 15.195312 -12.703125 15.328125 -12.21875 15.328125 -11.6875 Z M 12.40625 -11.6875 L 3.65625 -11.6875 L 3.65625 -8.765625 L 12.40625 -8.765625 Z M 12.40625 -11.6875 "/></g></g></g></g></g></svg>